<svg width="115" height="150" viewBox="0 0 115 150" fill="none" xmlns="http://www.w3.org/2000/svg">
<path d="M82.3819 50.0098C89.1141 50.0098 95.5706 47.3753 100.331 42.686C105.091 37.9967 107.766 31.6366 107.766 25.0049C107.766 18.3732 105.091 12.0131 100.331 7.32376C95.5706 2.63444 89.1141 0 82.3819 0L31.6144 0C24.8862 0 18.4335 2.63289 13.6759 7.31947C8.91832 12.006 6.24554 18.3624 6.24554 24.9902C6.24554 31.6181 8.91832 37.9744 13.6759 42.661C18.4335 47.3476 24.8862 49.9805 31.6144 49.9805C24.8822 49.9805 18.4258 52.6149 13.6654 57.3042C8.90502 61.9936 6.23067 68.3536 6.23067 74.9854C6.23067 81.6171 8.90502 87.9771 13.6654 92.6665C18.4258 97.3558 24.8822 99.9902 31.6144 99.9902C26.594 99.9873 21.6854 101.451 17.5095 104.196C13.3335 106.941 10.0777 110.845 8.15372 115.413C6.22977 119.981 5.72409 125.008 6.70065 129.859C7.6772 134.71 10.0921 139.167 13.64 142.666C17.1879 146.165 21.7095 148.549 26.6328 149.517C31.5562 150.484 36.6604 149.992 41.2997 148.102C45.9391 146.212 49.9055 143.01 52.6971 138.899C55.4887 134.789 56.9804 129.955 56.9833 125.01V50.0098H82.3819ZM82.3819 50.0098C77.3644 50.0098 72.4596 51.4754 68.2877 54.2214C64.1158 56.9673 60.8642 60.8703 58.9441 65.4367C57.024 70.003 56.5216 75.0277 57.5005 79.8754C58.4794 84.723 60.8955 89.1758 64.4434 92.6708C67.9913 96.1657 72.5116 98.5458 77.4327 99.5101C82.3538 100.474 87.4546 99.9794 92.0902 98.088C96.7257 96.1965 100.688 92.9935 103.475 88.8838C106.263 84.7742 107.751 79.9426 107.751 75C107.75 68.3724 105.077 62.0165 100.32 57.3301C95.5621 52.6437 89.1099 50.0105 82.3819 50.0098Z" fill="white"/>
</svg>
