<svg width="133" height="150" viewBox="0 0 133 150" fill="none" xmlns="http://www.w3.org/2000/svg">
<g clip-path="url(#clip0)">
<path d="M0 9.375V140.625H132.955V9.375H0ZM72.3534 111.738C72.3534 124.512 64.756 130.342 53.6863 130.342C43.6851 130.342 37.898 125.244 34.9302 119.062L45.1096 112.998C47.0683 116.426 48.8489 119.326 53.1521 119.326C57.2476 119.326 59.8592 117.744 59.8592 111.562V69.6387H72.3534V111.738ZM101.912 130.342C90.3082 130.342 82.7998 124.893 79.1495 117.744L89.3288 111.943C91.9998 116.25 95.5017 119.443 101.645 119.443C106.809 119.443 110.133 116.895 110.133 113.35C110.133 109.131 106.749 107.637 101.022 105.146L97.9056 103.828C88.8837 100.049 82.9185 95.2734 82.9185 85.2246C82.9185 75.9668 90.0708 68.9355 101.2 68.9355C109.153 68.9355 114.851 71.6602 118.947 78.8086L109.213 84.9609C107.076 81.1816 104.761 79.6875 101.17 79.6875C97.5198 79.6875 95.2049 81.9727 95.2049 84.9609C95.2049 88.6523 97.5198 90.1465 102.891 92.4609L106.008 93.7793C116.632 98.2617 122.597 102.861 122.597 113.174C122.597 124.248 113.753 130.342 101.912 130.342Z" fill="white"/>
</g>
<defs>
<clipPath id="clip0">
<rect width="132.955" height="150" fill="white"/>
</clipPath>
</defs>
</svg>
