<svg width="152" height="150" viewBox="0 0 152 150" fill="none" xmlns="http://www.w3.org/2000/svg">
<g clip-path="url(#clip0)">
<path d="M0 0V150H151.705V0H0ZM142.816 141.211H8.88894V8.78906H142.816V141.211Z" fill="white"/>
<path d="M63.1416 53.2031H41.7371V103.125H51.5505V86.3906H63.4972C72.2472 86.3906 79.2128 78.8575 79.2128 69.7969C79.2128 62.1094 72.9384 53.2031 63.1416 53.2031ZM62.9283 77.8828H51.5505V61.7109H62.5016C66.6667 61.7109 69.2572 65.5781 69.2572 69.7969C69.2572 74.707 66.3707 77.8828 62.9283 77.8828Z" fill="white"/>
<path d="M99.8343 81.0469C98.4589 80.7193 92.5098 79.7607 92.5098 76.4062C92.5098 73.7183 94.7413 72.2578 98.1988 72.2578C102.889 72.2578 107.111 74.9297 109.008 76.3359L112.848 70.6406C110.809 68.8597 106.445 65.5781 98.2699 65.5781C90.482 65.5781 83.6209 69.9463 83.6209 77.7422C83.6209 85.8398 94.501 87.3519 96.9187 88.0078C99.8097 88.8056 105.097 89.8315 105.097 93C105.097 95.5811 102.593 97.0781 98.981 97.0781C93.4079 97.0781 88.172 93.8206 85.8965 92.2266L82.3409 98.1328C84.4742 99.9609 90.5931 103.828 99.1943 103.828C103.84 103.828 114.27 102.393 114.27 92.1562C114.27 83.4961 102.394 81.7037 99.8343 81.0469Z" fill="white"/>
</g>
<defs>
<clipPath id="clip0">
<rect width="151.705" height="150" fill="white"/>
</clipPath>
</defs>
</svg>
