<svg width="150" height="150" viewBox="0 0 150 150" fill="none" xmlns="http://www.w3.org/2000/svg">
<path d="M18.0762 49.6289L47.8125 131.074C27.0117 120.996 12.6855 99.668 12.6855 75C12.6855 65.9473 14.6191 57.3926 18.0762 49.6289ZM117.07 71.8652C117.07 64.1602 114.316 58.8281 111.943 54.668C108.779 49.541 105.82 45.1758 105.82 40.0488C105.82 34.3066 110.156 28.9746 116.279 28.9746C116.543 28.9746 116.807 29.0039 117.1 29.0332C105.996 18.8672 91.2305 12.6562 75 12.6562C53.2324 12.6562 34.0723 23.8184 22.9102 40.752C24.375 40.8105 25.752 40.8398 26.9238 40.8398C33.4277 40.8398 43.5352 40.0488 43.5352 40.0488C46.9043 39.8438 47.2852 44.7949 43.9453 45.1758C43.9453 45.1758 40.5762 45.5566 36.8262 45.7617L59.5312 113.262L73.1836 72.3633L63.4863 45.7617C60.1172 45.5566 56.9531 45.1758 56.9531 45.1758C53.584 44.9707 53.9941 39.8438 57.334 40.0488C57.334 40.0488 67.6172 40.8398 73.7402 40.8398C80.2441 40.8398 90.3516 40.0488 90.3516 40.0488C93.7207 39.8438 94.1016 44.7949 90.7617 45.1758C90.7617 45.1758 87.3926 45.5566 83.6426 45.7617L106.172 112.764L112.383 91.9922C115.02 83.3789 117.07 77.1973 117.07 71.8652ZM76.084 80.4492L57.3926 134.795C62.9883 136.436 68.877 137.344 75 137.344C82.2656 137.344 89.209 136.084 95.6836 133.799C95.5078 133.535 95.3613 133.242 95.2441 132.949L76.084 80.4492ZM129.697 45.0879C129.961 47.0801 130.107 49.1895 130.107 51.5039C130.107 57.832 128.936 64.9219 125.361 73.8281L106.318 128.877C124.863 118.066 137.314 97.998 137.314 75C137.314 64.1602 134.561 53.9648 129.697 45.0879ZM147.656 75C147.656 115.078 115.049 147.656 75 147.656C34.9219 147.656 2.34375 115.049 2.34375 75C2.34375 34.9219 34.9219 2.34375 75 2.34375C115.049 2.34375 147.656 34.9219 147.656 75ZM144.316 75C144.316 36.7676 113.203 5.68359 75 5.68359C36.7676 5.68359 5.68359 36.7676 5.68359 75C5.68359 113.232 36.7969 144.316 75 144.316C113.232 144.316 144.316 113.232 144.316 75Z" fill="white"/>
</svg>
