<svg width="1113" height="21" viewBox="0 0 1113 21" fill="none" xmlns="http://www.w3.org/2000/svg">
<path d="M1 10.8122C36.8999 0.9451 57.2876 -0.40816 94.5 10.8122C131.563 22.6031 152.63 23.7797 191 10.8122C227.709 -1.12327 248.292 -0.781075 285 10.8122C322.49 19.7907 343.51 19.9757 381 10.8122C416.382 -0.289915 437.014 -0.312096 475 10.8122C512.045 18.4503 534.933 21.5632 571.5 10.8122C608.067 0.0611486 628.555 4.53199 665 10.8122C702.686 22.6988 723.814 23.645 761.5 10.8122C797.575 -1.91242 818.121 -2.62417 855.5 10.8122C895.753 20.4368 916.485 19.4351 951.5 10.8122C989.062 1.55379 1009.74 1.75459 1046 10.8122C1071.77 19.1196 1086.23 19.3474 1112 10.8122" stroke="white" stroke-dasharray="20 30"/>
</svg>
